<mxfile host="app.diagrams.net" modified="2022-11-09T18:33:20.057Z" agent="5.0 (Windows NT 10.0; Win64; x64) AppleWebKit/537.36 (KHTML, like Gecko) Chrome/107.0.0.0 Safari/537.36 Edg/107.0.1418.35" etag="rWj41brh7VFn59X05-dI" version="20.5.3" type="github">
  <diagram id="ckybNlmODZcwM_WtfgXv" name="PÃ¡gina-1">
    <mxGraphModel dx="992" dy="571" grid="1" gridSize="10" guides="1" tooltips="1" connect="1" arrows="1" fold="1" page="1" pageScale="1" pageWidth="827" pageHeight="1169" math="0" shadow="0">
      <root>
        <mxCell id="0" />
        <mxCell id="1" parent="0" />
        <mxCell id="1hAzW9PprDS383f8Jtw4-1" value="" style="whiteSpace=wrap;html=1;aspect=fixed;" vertex="1" parent="1">
          <mxGeometry x="210" y="105" width="380" height="380" as="geometry" />
        </mxCell>
        <mxCell id="1hAzW9PprDS383f8Jtw4-2" value="Adiministrador" style="shape=umlActor;verticalLabelPosition=bottom;verticalAlign=top;html=1;outlineConnect=0;" vertex="1" parent="1">
          <mxGeometry x="90" y="290" width="30" height="60" as="geometry" />
        </mxCell>
        <mxCell id="1hAzW9PprDS383f8Jtw4-4" value="Monitorar&lt;br&gt;dados" style="ellipse;whiteSpace=wrap;html=1;" vertex="1" parent="1">
          <mxGeometry x="240" y="250" width="90" height="70" as="geometry" />
        </mxCell>
        <mxCell id="1hAzW9PprDS383f8Jtw4-5" value="Criar" style="ellipse;whiteSpace=wrap;html=1;" vertex="1" parent="1">
          <mxGeometry x="410" y="170" width="90" height="70" as="geometry" />
        </mxCell>
        <mxCell id="1hAzW9PprDS383f8Jtw4-6" value="Consultar" style="ellipse;whiteSpace=wrap;html=1;" vertex="1" parent="1">
          <mxGeometry x="410" y="260" width="90" height="70" as="geometry" />
        </mxCell>
        <mxCell id="1hAzW9PprDS383f8Jtw4-7" value="Modificar" style="ellipse;whiteSpace=wrap;html=1;" vertex="1" parent="1">
          <mxGeometry x="414" y="350" width="90" height="70" as="geometry" />
        </mxCell>
        <mxCell id="1hAzW9PprDS383f8Jtw4-8" value="Arquivar" style="ellipse;whiteSpace=wrap;html=1;" vertex="1" parent="1">
          <mxGeometry x="270" y="370" width="90" height="70" as="geometry" />
        </mxCell>
      </root>
    </mxGraphModel>
  </diagram>
</mxfile>
